<svg xmlns="http://www.w3.org/2000/svg" xmlns:xlink="http://www.w3.org/1999/xlink" width="1080" zoomAndPan="magnify" viewBox="0 0 810 809.999993" height="1080" preserveAspectRatio="xMidYMid meet" version="1.2"><defs><clipPath id="7403c3f95c"><path d="M 278 351.078125 L 321 351.078125 L 321 459.078125 L 278 459.078125 Z M 278 351.078125 "/></clipPath><clipPath id="7fed3986d3"><path d="M 278 351.078125 L 366 351.078125 L 366 393 L 278 393 Z M 278 351.078125 "/></clipPath></defs><g id="df4fd5a647"><g clip-rule="nonzero" clip-path="url(#7403c3f95c)"><path style=" stroke:none;fill-rule:nonzero;fill:#1e4db7;fill-opacity:1;" d="M 320.207031 371.980469 L 320.207031 438.175781 C 320.207031 438.859375 320.171875 439.542969 320.105469 440.222656 C 320.039062 440.90625 319.9375 441.582031 319.804688 442.253906 C 319.671875 442.921875 319.507812 443.585938 319.308594 444.242188 C 319.109375 444.898438 318.878906 445.542969 318.617188 446.171875 C 318.355469 446.804688 318.0625 447.425781 317.742188 448.027344 C 317.417969 448.632812 317.066406 449.21875 316.6875 449.789062 C 316.308594 450.355469 315.902344 450.90625 315.46875 451.433594 C 315.035156 451.964844 314.574219 452.472656 314.089844 452.953125 C 313.609375 453.4375 313.101562 453.898438 312.574219 454.332031 C 312.042969 454.765625 311.496094 455.175781 310.925781 455.554688 C 310.359375 455.933594 309.773438 456.285156 309.167969 456.609375 C 308.566406 456.933594 307.949219 457.222656 307.316406 457.484375 C 306.683594 457.75 306.042969 457.980469 305.386719 458.175781 C 304.734375 458.375 304.070312 458.542969 303.398438 458.675781 C 302.730469 458.808594 302.054688 458.910156 301.375 458.976562 C 300.691406 459.042969 300.011719 459.078125 299.328125 459.078125 C 298.644531 459.078125 297.960938 459.042969 297.28125 458.976562 C 296.597656 458.910156 295.921875 458.808594 295.253906 458.675781 C 294.582031 458.542969 293.917969 458.375 293.265625 458.175781 C 292.609375 457.980469 291.96875 457.75 291.335938 457.484375 C 290.703125 457.222656 290.085938 456.933594 289.484375 456.609375 C 288.878906 456.285156 288.292969 455.933594 287.726562 455.554688 C 287.15625 455.175781 286.609375 454.765625 286.082031 454.332031 C 285.550781 453.898438 285.046875 453.4375 284.5625 452.953125 C 284.078125 452.472656 283.621094 451.964844 283.1875 451.433594 C 282.753906 450.90625 282.34375 450.355469 281.964844 449.789062 C 281.585938 449.21875 281.234375 448.632812 280.910156 448.027344 C 280.589844 447.425781 280.296875 446.804688 280.035156 446.171875 C 279.773438 445.542969 279.542969 444.898438 279.34375 444.242188 C 279.148438 443.585938 278.980469 442.921875 278.847656 442.253906 C 278.714844 441.582031 278.613281 440.90625 278.546875 440.222656 C 278.480469 439.542969 278.445312 438.859375 278.445312 438.175781 L 278.445312 371.980469 C 278.445312 371.296875 278.480469 370.613281 278.546875 369.933594 C 278.613281 369.25 278.714844 368.574219 278.847656 367.902344 C 278.980469 367.230469 279.148438 366.566406 279.34375 365.914062 C 279.542969 365.257812 279.773438 364.613281 280.035156 363.980469 C 280.296875 363.347656 280.589844 362.730469 280.910156 362.128906 C 281.234375 361.523438 281.585938 360.9375 281.964844 360.367188 C 282.34375 359.796875 282.753906 359.25 283.1875 358.71875 C 283.621094 358.191406 284.078125 357.683594 284.5625 357.199219 C 285.046875 356.714844 285.550781 356.257812 286.082031 355.820312 C 286.609375 355.386719 287.15625 354.980469 287.726562 354.601562 C 288.292969 354.21875 288.878906 353.867188 289.484375 353.546875 C 290.085938 353.222656 290.703125 352.929688 291.335938 352.667969 C 291.96875 352.40625 292.609375 352.175781 293.265625 351.976562 C 293.917969 351.777344 294.582031 351.613281 295.253906 351.480469 C 295.921875 351.34375 296.597656 351.246094 297.28125 351.179688 C 297.960938 351.109375 298.644531 351.078125 299.328125 351.078125 C 300.011719 351.078125 300.691406 351.109375 301.375 351.179688 C 302.054688 351.246094 302.730469 351.34375 303.398438 351.480469 C 304.070312 351.613281 304.734375 351.777344 305.386719 351.976562 C 306.042969 352.175781 306.683594 352.40625 307.316406 352.667969 C 307.949219 352.929688 308.566406 353.222656 309.167969 353.546875 C 309.773438 353.867188 310.359375 354.21875 310.925781 354.601562 C 311.496094 354.980469 312.042969 355.386719 312.574219 355.820312 C 313.101562 356.257812 313.609375 356.714844 314.089844 357.199219 C 314.574219 357.683594 315.035156 358.191406 315.46875 358.71875 C 315.902344 359.25 316.308594 359.796875 316.6875 360.367188 C 317.066406 360.9375 317.417969 361.523438 317.742188 362.128906 C 318.0625 362.730469 318.355469 363.347656 318.617188 363.980469 C 318.878906 364.613281 319.109375 365.257812 319.308594 365.914062 C 319.507812 366.566406 319.671875 367.230469 319.804688 367.902344 C 319.9375 368.574219 320.039062 369.25 320.105469 369.933594 C 320.171875 370.613281 320.207031 371.296875 320.207031 371.980469 Z M 320.207031 371.980469 "/></g><g clip-rule="nonzero" clip-path="url(#7fed3986d3)"><path style=" stroke:none;fill-rule:nonzero;fill:#1a9bfc;fill-opacity:1;" d="M 299.328125 351.078125 L 344.566406 351.078125 C 345.25 351.078125 345.933594 351.109375 346.613281 351.179688 C 347.292969 351.246094 347.96875 351.34375 348.640625 351.480469 C 349.3125 351.613281 349.972656 351.777344 350.628906 351.976562 C 351.28125 352.175781 351.925781 352.40625 352.558594 352.667969 C 353.191406 352.929688 353.808594 353.222656 354.410156 353.546875 C 355.011719 353.867188 355.597656 354.21875 356.167969 354.601562 C 356.734375 354.980469 357.285156 355.386719 357.8125 355.824219 C 358.34375 356.257812 358.847656 356.714844 359.332031 357.199219 C 359.816406 357.683594 360.273438 358.191406 360.707031 358.71875 C 361.140625 359.25 361.546875 359.796875 361.929688 360.367188 C 362.308594 360.9375 362.660156 361.523438 362.980469 362.128906 C 363.304688 362.730469 363.597656 363.347656 363.859375 363.980469 C 364.121094 364.613281 364.351562 365.257812 364.546875 365.914062 C 364.746094 366.566406 364.914062 367.230469 365.046875 367.902344 C 365.179688 368.574219 365.28125 369.25 365.347656 369.933594 C 365.414062 370.613281 365.449219 371.296875 365.449219 371.980469 C 365.449219 372.664062 365.414062 373.347656 365.347656 374.03125 C 365.28125 374.710938 365.179688 375.386719 365.046875 376.058594 C 364.914062 376.730469 364.746094 377.394531 364.546875 378.046875 C 364.351562 378.703125 364.121094 379.347656 363.859375 379.980469 C 363.597656 380.613281 363.304688 381.230469 362.980469 381.835938 C 362.660156 382.4375 362.308594 383.023438 361.929688 383.59375 C 361.546875 384.164062 361.140625 384.710938 360.707031 385.242188 C 360.273438 385.769531 359.816406 386.277344 359.332031 386.761719 C 358.847656 387.246094 358.34375 387.703125 357.8125 388.140625 C 357.285156 388.574219 356.734375 388.980469 356.167969 389.359375 C 355.597656 389.742188 355.011719 390.09375 354.410156 390.414062 C 353.808594 390.738281 353.191406 391.03125 352.558594 391.292969 C 351.925781 391.554688 351.28125 391.785156 350.628906 391.984375 C 349.972656 392.183594 349.3125 392.347656 348.640625 392.480469 C 347.96875 392.617188 347.292969 392.714844 346.613281 392.785156 C 345.933594 392.851562 345.25 392.882812 344.566406 392.882812 L 299.328125 392.882812 C 298.644531 392.882812 297.960938 392.851562 297.28125 392.785156 C 296.597656 392.714844 295.921875 392.617188 295.253906 392.480469 C 294.582031 392.347656 293.917969 392.183594 293.265625 391.984375 C 292.609375 391.785156 291.96875 391.554688 291.335938 391.292969 C 290.703125 391.03125 290.085938 390.738281 289.484375 390.414062 C 288.878906 390.09375 288.292969 389.742188 287.726562 389.359375 C 287.15625 388.980469 286.609375 388.574219 286.082031 388.140625 C 285.550781 387.703125 285.046875 387.246094 284.5625 386.761719 C 284.078125 386.277344 283.621094 385.769531 283.1875 385.242188 C 282.753906 384.710938 282.34375 384.164062 281.964844 383.59375 C 281.585938 383.023438 281.234375 382.4375 280.910156 381.835938 C 280.589844 381.230469 280.296875 380.613281 280.035156 379.980469 C 279.773438 379.347656 279.542969 378.703125 279.34375 378.046875 C 279.148438 377.394531 278.980469 376.730469 278.847656 376.058594 C 278.714844 375.386719 278.613281 374.710938 278.546875 374.03125 C 278.480469 373.347656 278.445312 372.664062 278.445312 371.980469 C 278.445312 371.296875 278.480469 370.613281 278.546875 369.933594 C 278.613281 369.25 278.714844 368.574219 278.847656 367.902344 C 278.980469 367.230469 279.148438 366.566406 279.34375 365.914062 C 279.542969 365.257812 279.773438 364.613281 280.035156 363.980469 C 280.296875 363.347656 280.589844 362.730469 280.910156 362.128906 C 281.234375 361.523438 281.585938 360.9375 281.964844 360.367188 C 282.34375 359.796875 282.753906 359.25 283.1875 358.71875 C 283.621094 358.191406 284.078125 357.683594 284.5625 357.199219 C 285.046875 356.714844 285.550781 356.257812 286.082031 355.824219 C 286.609375 355.386719 287.15625 354.980469 287.726562 354.601562 C 288.292969 354.21875 288.878906 353.867188 289.484375 353.546875 C 290.085938 353.222656 290.703125 352.929688 291.335938 352.667969 C 291.96875 352.40625 292.609375 352.175781 293.265625 351.976562 C 293.917969 351.777344 294.582031 351.613281 295.253906 351.480469 C 295.921875 351.34375 296.597656 351.246094 297.28125 351.179688 C 297.960938 351.109375 298.644531 351.078125 299.328125 351.078125 Z M 299.328125 351.078125 "/></g><path style=" stroke:none;fill-rule:nonzero;fill:#fec90f;fill-opacity:1;" d="M 365.449219 429.464844 C 365.449219 430.207031 365.410156 430.945312 365.339844 431.683594 C 365.265625 432.421875 365.15625 433.15625 365.011719 433.882812 C 364.867188 434.609375 364.6875 435.328125 364.472656 436.039062 C 364.257812 436.746094 364.007812 437.445312 363.726562 438.128906 C 363.441406 438.816406 363.125 439.484375 362.777344 440.140625 C 362.425781 440.792969 362.046875 441.429688 361.636719 442.046875 C 361.222656 442.664062 360.78125 443.257812 360.3125 443.832031 C 359.84375 444.402344 359.347656 444.953125 358.820312 445.476562 C 358.296875 446 357.75 446.5 357.175781 446.96875 C 356.605469 447.441406 356.011719 447.882812 355.394531 448.292969 C 354.777344 448.707031 354.144531 449.085938 353.492188 449.4375 C 352.835938 449.785156 352.167969 450.101562 351.484375 450.386719 C 350.800781 450.667969 350.101562 450.917969 349.394531 451.132812 C 348.683594 451.351562 347.96875 451.53125 347.238281 451.675781 C 346.511719 451.820312 345.78125 451.929688 345.042969 452 C 344.308594 452.074219 343.566406 452.109375 342.828125 452.109375 C 342.085938 452.109375 341.347656 452.074219 340.609375 452 C 339.871094 451.929688 339.140625 451.820312 338.414062 451.675781 C 337.6875 451.53125 336.96875 451.351562 336.261719 451.132812 C 335.550781 450.917969 334.855469 450.667969 334.171875 450.386719 C 333.484375 450.101562 332.816406 449.785156 332.164062 449.4375 C 331.511719 449.085938 330.875 448.707031 330.261719 448.292969 C 329.644531 447.882812 329.050781 447.441406 328.476562 446.96875 C 327.90625 446.5 327.355469 446 326.832031 445.476562 C 326.308594 444.953125 325.8125 444.402344 325.339844 443.832031 C 324.871094 443.257812 324.429688 442.664062 324.019531 442.046875 C 323.609375 441.429688 323.226562 440.792969 322.878906 440.140625 C 322.527344 439.484375 322.210938 438.816406 321.929688 438.128906 C 321.644531 437.445312 321.394531 436.746094 321.179688 436.039062 C 320.964844 435.328125 320.785156 434.609375 320.640625 433.882812 C 320.496094 433.15625 320.386719 432.421875 320.316406 431.683594 C 320.242188 430.945312 320.207031 430.207031 320.207031 429.464844 C 320.207031 428.722656 320.242188 427.984375 320.316406 427.246094 C 320.386719 426.507812 320.496094 425.773438 320.640625 425.046875 C 320.785156 424.320312 320.964844 423.601562 321.179688 422.890625 C 321.394531 422.179688 321.644531 421.484375 321.929688 420.796875 C 322.210938 420.113281 322.527344 419.445312 322.878906 418.789062 C 323.226562 418.136719 323.609375 417.5 324.019531 416.882812 C 324.429688 416.265625 324.871094 415.671875 325.339844 415.097656 C 325.8125 414.523438 326.308594 413.976562 326.832031 413.453125 C 327.355469 412.925781 327.90625 412.429688 328.476562 411.960938 C 329.050781 411.488281 329.644531 411.046875 330.261719 410.636719 C 330.875 410.222656 331.511719 409.84375 332.164062 409.492188 C 332.816406 409.144531 333.484375 408.828125 334.171875 408.542969 C 334.855469 408.257812 335.550781 408.011719 336.261719 407.792969 C 336.96875 407.578125 337.6875 407.398438 338.414062 407.253906 C 339.140625 407.109375 339.871094 407 340.609375 406.929688 C 341.347656 406.855469 342.085938 406.820312 342.828125 406.820312 C 343.566406 406.820312 344.308594 406.855469 345.042969 406.929688 C 345.78125 407 346.511719 407.109375 347.238281 407.253906 C 347.96875 407.398438 348.683594 407.578125 349.394531 407.792969 C 350.101562 408.011719 350.800781 408.257812 351.484375 408.542969 C 352.167969 408.828125 352.835938 409.144531 353.492188 409.492188 C 354.144531 409.84375 354.777344 410.222656 355.394531 410.636719 C 356.011719 411.046875 356.605469 411.488281 357.175781 411.960938 C 357.75 412.429688 358.296875 412.925781 358.820312 413.453125 C 359.347656 413.976562 359.84375 414.523438 360.3125 415.097656 C 360.78125 415.671875 361.222656 416.265625 361.636719 416.882812 C 362.046875 417.5 362.425781 418.136719 362.777344 418.789062 C 363.125 419.445312 363.441406 420.113281 363.726562 420.796875 C 364.007812 421.484375 364.257812 422.179688 364.472656 422.890625 C 364.6875 423.601562 364.867188 424.320312 365.011719 425.046875 C 365.15625 425.773438 365.265625 426.507812 365.339844 427.246094 C 365.410156 427.984375 365.449219 428.722656 365.449219 429.464844 Z M 365.449219 429.464844 "/><g style="fill:#11142d;fill-opacity:1;"><g transform="translate(377.838676, 424.289442)"><path style="stroke:none" d="M 27.828125 -43.15625 L 27.828125 0 L 16.875 0 L 16.875 -43.15625 L 1.015625 -43.15625 L 1.015625 -52.4375 L 43.671875 -52.4375 L 43.671875 -43.15625 Z M 27.828125 -43.15625 "/></g></g><g style="fill:#11142d;fill-opacity:1;"><g transform="translate(422.453626, 424.289442)"><path style="stroke:none" d="M 30.671875 -11.09375 L 40.015625 -52.4375 L 55.875 -52.4375 L 55.875 0 L 45.640625 0 L 45.640625 -43.8125 L 45.5 -43.8125 L 35.71875 0 L 24.984375 0 L 15.40625 -43.8125 L 15.265625 -43.8125 L 15.265625 0 L 5.046875 0 L 5.046875 -52.4375 L 21.03125 -52.4375 L 30.53125 -11.09375 Z M 30.671875 -11.09375 "/></g></g><g style="fill:#11142d;fill-opacity:1;"><g transform="translate(483.278925, 424.289442)"><path style="stroke:none" d="M 23 -44.765625 C 20.320312 -44.765625 18.128906 -44.191406 16.421875 -43.046875 C 14.722656 -41.898438 13.875 -40.378906 13.875 -38.484375 C 13.875 -37.078125 14.273438 -35.921875 15.078125 -35.015625 C 15.878906 -34.117188 17.546875 -33.378906 20.078125 -32.796875 L 32.421875 -29.796875 C 37.484375 -28.578125 41 -26.820312 42.96875 -24.53125 C 44.945312 -22.25 45.9375 -19.332031 45.9375 -15.78125 C 45.9375 -12.03125 45.019531 -8.863281 43.1875 -6.28125 C 41.363281 -3.695312 38.894531 -1.769531 35.78125 -0.5 C 32.664062 0.757812 29.140625 1.390625 25.203125 1.390625 C 18.285156 1.390625 12.878906 -0.0664062 8.984375 -2.984375 C 5.085938 -5.910156 3.039062 -10.296875 2.84375 -16.140625 L 13.359375 -16.140625 C 13.460938 -13.460938 14.460938 -11.378906 16.359375 -9.890625 C 18.253906 -8.410156 20.957031 -7.671875 24.46875 -7.671875 C 28.019531 -7.671875 30.734375 -8.226562 32.609375 -9.34375 C 34.484375 -10.46875 35.421875 -12.171875 35.421875 -14.453125 C 35.421875 -15.921875 34.921875 -17.066406 33.921875 -17.890625 C 32.921875 -18.722656 31.253906 -19.476562 28.921875 -20.15625 C 26.585938 -20.832031 22.691406 -21.78125 17.234375 -23 C 12.460938 -24.070312 9.003906 -25.773438 6.859375 -28.109375 C 4.722656 -30.453125 3.65625 -33.644531 3.65625 -37.6875 C 3.65625 -40.800781 4.394531 -43.570312 5.875 -46 C 7.363281 -48.4375 9.613281 -50.347656 12.625 -51.734375 C 15.644531 -53.128906 19.375 -53.828125 23.8125 -53.828125 C 27.851562 -53.828125 31.394531 -53.128906 34.4375 -51.734375 C 37.476562 -50.347656 39.847656 -48.378906 41.546875 -45.828125 C 43.253906 -43.273438 44.15625 -40.289062 44.25 -36.875 L 33.734375 -36.875 C 33.253906 -42.132812 29.675781 -44.765625 23 -44.765625 Z M 23 -44.765625 "/></g></g></g></svg>